<svg width="14" height="14" viewBox="0 0 14 14" fill="none" xmlns="http://www.w3.org/2000/svg">
<path d="M7.39774 0.293579C3.75176 0.293579 0.795471 3.25508 0.795471 6.9075C0.795471 10.5599 3.75176 13.5214 7.39774 13.5214C11.0437 13.5214 14 10.5599 14 6.9075C14 3.25508 11.0437 0.293579 7.39774 0.293579ZM7.86933 10.0963C7.86933 10.1613 7.81628 10.2145 7.75144 10.2145H7.04405C6.97921 10.2145 6.92615 10.1613 6.92615 10.0963V6.08076C6.92615 6.0158 6.97921 5.96265 7.04405 5.96265H7.75144C7.81628 5.96265 7.86933 6.0158 7.86933 6.08076V10.0963ZM7.39774 5.01781C7.21263 5.01402 7.03638 4.9377 6.9068 4.80521C6.77723 4.67273 6.70465 4.49465 6.70465 4.30917C6.70465 4.1237 6.77723 3.94561 6.9068 3.81313C7.03638 3.68065 7.21263 3.60432 7.39774 3.60054C7.58285 3.60432 7.75911 3.68065 7.88869 3.81313C8.01826 3.94561 8.09084 4.1237 8.09084 4.30917C8.09084 4.49465 8.01826 4.67273 7.88869 4.80521C7.75911 4.9377 7.58285 5.01402 7.39774 5.01781Z" fill="#69AF5E"/>
</svg>
